# xmcd
#
# Track frame offsets: 
#        150
#        12508
#        25558
#        43015
#        55198
#        69285
#        83082
#        98519
#        112696
#        125728
#        140455
#        153826
#        166375
#        177963
#        189626
#
# Disc length: 2674 seconds
#
# Revision: 0
# Processed by: cddbd v1.5.2PL0 Copyright (c) Steve Scherf et al.
# Submitted via: ExactAudioCopy v0.99pb5
#
DISCID=b50a700f
DTITLE=Verschiedene Artisten - La Discothèque Idéale Soul - CD3
DYEAR=2007
DGENRE=Soul
TTITLE0=Otis Redding - (Sittin´on) The Dock of the Bay
TTITLE1=Booker T. and The MG´s - Green Onions
TTITLE2=Brook Benton - Rainy Night in Georgia
TTITLE3=Ivory Joe Hunter - Empty Arms
TTITLE4=Frank Culley - Cole Slaw
TTITLE5=Eddie Floyd - Knock on Wood
TTITLE6=The Persuaders - Thin Line between Love and Hate
TTITLE7=Joe Morris Orchestra - The Applejack
TTITLE8=Joe Turner - Corrine Corrina
TTITLE9=The Coasters - Down in Mexico
TTITLE10=The Diamonds - A Beggar for your Kisses
TTITLE11=Willie Tee - Teasin`you
TTITLE12=Rufus Thomas - Walking the Dog
TTITLE13=Ray Charles - Hallelujah I love her so
TTITLE14=Don Cherry - Mercy, Mercy
EXTD=
EXTT0=
EXTT1=
EXTT2=
EXTT3=
EXTT4=
EXTT5=
EXTT6=
EXTT7=
EXTT8=
EXTT9=
EXTT10=
EXTT11=
EXTT12=
EXTT13=
EXTT14=
PLAYORDER=
